<?xml version="1.0" encoding="utf-8"?>
<!-- Generator: Adobe Illustrator 27.0.1, SVG Export Plug-In . SVG Version: 6.00 Build 0)  -->
<svg version="1.1" id="HSG_Logo" xmlns="http://www.w3.org/2000/svg" xmlns:xlink="http://www.w3.org/1999/xlink" x="0px" y="0px"
	 viewBox="0 0 595 595" style="enable-background:new 0 0 595 595;" xml:space="preserve">
<style type="text/css">
	.st0{fill:#00802F;}
	.st1{fill:#FFFFFF;}
</style>
<g>
	<g>
		<path class="st0" d="M595,545c0,27.5-22.5,50-50,50H50c-27.5,0-50-22.5-50-50V50C0,22.5,22.5,0,50,0h495c27.5,0,50,22.5,50,50V545
			z"/>
	</g>
	<g>
		<path class="st1" d="M377.8,340.1l-78.3-28.5c-1.2-0.4-2.1-1.5-2.5-2.7l-3.2-11.9c-0.6-2.3,0.8-4.6,3.2-5l80.9-14.3V340.1z
			 M274.7,313.9l-9.8-10.9c-1.3-1.4-3.3-1.7-5-0.8l-58.1,33.5l9.6,54.3l21.4,1.9l42.3-73.4C276.1,317.1,275.9,315.2,274.7,313.9z
			 M261.6,248.8c-1.1-3.2-4-5.4-7.3-5.7l-69.8-6.1l15.1,85.9l69.9-40.4c1.8-1,2.6-3.2,1.9-5.1c-0.4-1.2-1.3-2.1-2.5-2.6
			c-5.4-1.9-9.2-7.1-9.2-13.1c0-2.2,0.5-4.3,1.4-6.1C262.1,253.5,262.4,251.1,261.6,248.8 M377.8,189.7l-103.7,48.4
			c-2.2,1-3.2,3.6-2.3,5.9l0.4,1.1c0.6,1.6,2.1,2.6,3.7,2.9c4.4,0.7,8.3,3.5,10.3,7.9c2.4,5.1,1.4,10.8-2,14.9c-0.8,1-1,2.3-0.6,3.5
			c0.7,1.7,2.6,2.6,4.4,2l89.7-32.7V189.7z M285.3,326.8l-38.1,66.4l130.7,11.4V381l-81-56.7C292.9,321.5,287.6,322.7,285.3,326.8z"
			/>
	</g>
	<path class="st1" d="M297.5,73.4c-123.8,0-224.1,100.3-224.1,224.1c0,38.8,9.9,75.3,27.2,107.1c1.5,2.7,3,5.4,4.6,8.1l-31.8,97.1
		l109.1-19.9c33.6,20.2,73,31.8,115.1,31.8c123.8,0,224.1-100.3,224.1-224.1S421.3,73.4,297.5,73.4z M297.5,487.6
		c-105,0-190.1-85.1-190.1-190.1s85.1-190.1,190.1-190.1s190.1,85.1,190.1,190.1S402.5,487.6,297.5,487.6z"/>
	<polyline class="st0" points="122.3,471.5 148.2,392.3 202.3,456.9 	"/>
</g>
</svg>
